<?xml version="1.0" encoding="UTF-8" standalone="no"?>
<!-- Created with Inkscape (http://www.inkscape.org/) -->

<svg
   xmlns:dc="http://purl.org/dc/elements/1.1/"
   xmlns:cc="http://creativecommons.org/ns#"
   xmlns:rdf="http://www.w3.org/1999/02/22-rdf-syntax-ns#"
   xmlns:svg="http://www.w3.org/2000/svg"
   xmlns="http://www.w3.org/2000/svg"
   xmlns:sodipodi="http://sodipodi.sourceforge.net/DTD/sodipodi-0.dtd"
   xmlns:inkscape="http://www.inkscape.org/namespaces/inkscape"
   width="275"
   height="270"
   id="svg2"
   version="1.1"
   inkscape:version="0.48.5 r10040"
   sodipodi:docname="logo5.svg"
   inkscape:export-filename="/Users/luzgaral/Google Drive/projects/pathway_activities/DoRothEA/logo3.png"
   inkscape:export-xdpi="300"
   inkscape:export-ydpi="300">
  <defs
     id="defs4">
    <inkscape:perspective
       sodipodi:type="inkscape:persp3d"
       inkscape:vp_x="316.07673 : 404.40768 : 1"
       inkscape:vp_y="0 : 1000 : 0"
       inkscape:vp_z="-48.370214 : 469.4615 : 1"
       inkscape:persp3d-origin="187.59337 : 271.72644 : 1"
       id="perspective3818" />
    <clipPath
       clipPathUnits="userSpaceOnUse"
       id="clipPath4482">
      <rect
         style="fill:none;stroke:#bac700;stroke-width:30;stroke-linecap:round;stroke-linejoin:round;stroke-miterlimit:4;stroke-opacity:1;stroke-dasharray:none"
         id="rect4484"
         width="602.0509"
         height="539.42145"
         x="359.61432"
         y="-32.521347" />
    </clipPath>
    <clipPath
       clipPathUnits="userSpaceOnUse"
       id="clipPath4488">
      <rect
         style="fill:none;stroke:#bac700;stroke-width:30;stroke-linecap:round;stroke-linejoin:round;stroke-miterlimit:4;stroke-opacity:1;stroke-dasharray:none"
         id="rect4490"
         width="402.04071"
         height="610.13214"
         x="-60.609154"
         y="-135.57721" />
    </clipPath>
  </defs>
  <sodipodi:namedview
     id="base"
     pagecolor="#ffffff"
     bordercolor="#666666"
     borderopacity="1.0"
     inkscape:pageopacity="1"
     inkscape:pageshadow="2"
     inkscape:zoom="1.4142136"
     inkscape:cx="288.43934"
     inkscape:cy="205.5385"
     inkscape:document-units="px"
     inkscape:current-layer="layer1"
     showgrid="false"
     width="624.41px"
     inkscape:window-width="1904"
     inkscape:window-height="1230"
     inkscape:window-x="81"
     inkscape:window-y="69"
     inkscape:window-maximized="0" />
  <metadata
     id="metadata7">
    <rdf:RDF>
      <cc:Work
         rdf:about="">
        <dc:format>image/svg+xml</dc:format>
        <dc:type
           rdf:resource="http://purl.org/dc/dcmitype/StillImage" />
        <dc:title></dc:title>
      </cc:Work>
    </rdf:RDF>
  </metadata>
  <g
     inkscape:label="Layer 1"
     inkscape:groupmode="layer"
     id="layer1"
     transform="translate(0,-782.36213)">
    <path
       sodipodi:type="arc"
       style="fill:#008cfe;fill-opacity:0.30917873;fill-rule:nonzero;stroke:none"
       id="path3812"
       sodipodi:cx="159.09901"
       sodipodi:cy="74.131424"
       sodipodi:rx="65.053825"
       sodipodi:ry="58.689861"
       d="m 224.15284,74.131424 a 65.053825,58.689861 0 1 1 -130.107651,0 65.053825,58.689861 0 1 1 130.107651,0 z"
       transform="matrix(0.95108696,0,0,1,-7.39997,782.36217)" />
    <rect
       y="-846.41968"
       x="28.385925"
       height="0.58008093"
       width="125.42462"
       id="rect4666"
       style="fill:#b6b6b6;fill-opacity:1;stroke:#a5a5a5;stroke-width:1;stroke-linecap:round;stroke-linejoin:miter;stroke-miterlimit:4;stroke-opacity:1;stroke-dasharray:none"
       transform="scale(1,-1)" />
    <rect
       style="fill:#b6b6b6;fill-opacity:1;stroke:#a5a5a5;stroke-width:1;stroke-linecap:round;stroke-linejoin:miter;stroke-miterlimit:4;stroke-opacity:1;stroke-dasharray:none"
       id="rect4618"
       width="122.30364"
       height="0.58008093"
       x="29.946472"
       y="989.63733" />
    <rect
       style="fill:#b6b6b6;fill-opacity:1;stroke:#a5a5a5;stroke-width:1.0384382;stroke-linecap:round;stroke-linejoin:miter;stroke-miterlimit:4;stroke-opacity:1;stroke-dasharray:none"
       id="rect4554"
       width="31.210403"
       height="0.58008093"
       x="75.701843"
       y="917.73853" />
    <rect
       style="fill:#b6b6b6;fill-opacity:1;stroke:#a5a5a5;stroke-width:1;stroke-linecap:round;stroke-linejoin:miter;stroke-miterlimit:4;stroke-opacity:1;stroke-dasharray:none"
       id="rect4614"
       width="88.60585"
       height="0.47124162"
       x="46.795288"
       y="941.75922" />
    <rect
       y="965.6778"
       x="37.403625"
       height="0.5666678"
       width="107.38921"
       id="rect4616"
       style="fill:#b6b6b6;fill-opacity:1;stroke:#a5a5a5;stroke-width:1;stroke-linecap:round;stroke-linejoin:miter;stroke-miterlimit:4;stroke-opacity:1;stroke-dasharray:none" />
    <rect
       y="1013.6039"
       x="37.280945"
       height="0.58008093"
       width="107.63467"
       id="rect4620"
       style="fill:#b6b6b6;fill-opacity:1;stroke:#a5a5a5;stroke-width:1;stroke-linecap:round;stroke-linejoin:miter;stroke-miterlimit:4;stroke-opacity:1;stroke-dasharray:none" />
    <rect
       y="1037.6243"
       x="46.795288"
       height="0.47124162"
       width="88.60585"
       id="rect4632"
       style="fill:#b6b6b6;fill-opacity:1;stroke:#a5a5a5;stroke-width:1;stroke-linecap:round;stroke-linejoin:miter;stroke-miterlimit:4;stroke-opacity:1;stroke-dasharray:none" />
    <rect
       y="-894.29785"
       x="46.795288"
       height="0.47124162"
       width="88.60585"
       id="rect4662"
       style="fill:#b6b6b6;fill-opacity:1;stroke:#a5a5a5;stroke-width:1;stroke-linecap:round;stroke-linejoin:miter;stroke-miterlimit:4;stroke-opacity:1;stroke-dasharray:none"
       transform="scale(1,-1)" />
    <rect
       style="fill:#b6b6b6;fill-opacity:1;stroke:#a5a5a5;stroke-width:1;stroke-linecap:round;stroke-linejoin:miter;stroke-miterlimit:4;stroke-opacity:1;stroke-dasharray:none"
       id="rect4664"
       width="107.38921"
       height="0.5666678"
       x="37.403625"
       y="-870.37927"
       transform="scale(1,-1)" />
    <rect
       style="fill:#b6b6b6;fill-opacity:1;stroke:#a5a5a5;stroke-width:1;stroke-linecap:round;stroke-linejoin:miter;stroke-miterlimit:4;stroke-opacity:1;stroke-dasharray:none"
       id="rect4668"
       width="107.63467"
       height="0.58008093"
       x="37.280945"
       y="-822.45337"
       transform="scale(1,-1)" />
    <rect
       style="fill:#b6b6b6;fill-opacity:1;stroke:#a5a5a5;stroke-width:1;stroke-linecap:round;stroke-linejoin:miter;stroke-miterlimit:4;stroke-opacity:1;stroke-dasharray:none"
       id="rect4670"
       width="88.60585"
       height="0.47124162"
       x="46.795288"
       y="-798.43262"
       transform="scale(1,-1)" />
    <path
       sodipodi:type="arc"
       style="fill:none;stroke:#a5a5a5;stroke-width:18.5844593;stroke-linecap:round;stroke-linejoin:round;stroke-miterlimit:4;stroke-opacity:1;stroke-dasharray:none"
       id="path4498"
       sodipodi:cx="-13.830327"
       sodipodi:cy="421.82498"
       sodipodi:rx="2.514605"
       sodipodi:ry="1.8859538"
       d="m -11.315722,421.82498 a 2.514605,1.8859538 0 1 1 -5.02921,0 2.514605,1.8859538 0 1 1 5.02921,0 z"
       transform="matrix(0.43046721,0,0,0.43046721,47.66983,616.61507)" />
    <path
       transform="matrix(0.43046721,0,0,0.43046721,33.66983,664.54777)"
       d="m -11.315722,421.82498 a 2.514605,1.8859538 0 1 1 -5.02921,0 2.514605,1.8859538 0 1 1 5.02921,0 z"
       sodipodi:ry="1.8859538"
       sodipodi:rx="2.514605"
       sodipodi:cy="421.82498"
       sodipodi:cx="-13.830327"
       id="path4500"
       style="fill:#b6b6b6;fill-opacity:1;stroke:#a5a5a5;stroke-width:18.5844593;stroke-linecap:round;stroke-linejoin:round;stroke-miterlimit:4;stroke-opacity:1;stroke-dasharray:none"
       sodipodi:type="arc" />
    <path
       sodipodi:type="arc"
       style="fill:#008cfe;fill-opacity:1;stroke:#008cfe;stroke-width:18.5844593;stroke-linecap:round;stroke-linejoin:round;stroke-miterlimit:4;stroke-opacity:1;stroke-dasharray:none"
       id="path4502"
       sodipodi:cx="-13.830327"
       sodipodi:cy="421.82498"
       sodipodi:rx="2.514605"
       sodipodi:ry="1.8859538"
       d="m -11.315722,421.82498 a 2.514605,1.8859538 0 1 1 -5.02921,0 2.514605,1.8859538 0 1 1 5.02921,0 z"
       transform="matrix(0.43046721,0,0,0.43046721,39.66983,688.51407)" />
    <path
       transform="matrix(0.43046721,0,0,0.43046721,47.66983,760.41297)"
       d="m -11.315722,421.82498 a 2.514605,1.8859538 0 1 1 -5.02921,0 2.514605,1.8859538 0 1 1 5.02921,0 z"
       sodipodi:ry="1.8859538"
       sodipodi:rx="2.514605"
       sodipodi:cy="421.82498"
       sodipodi:cx="-13.830327"
       id="path4504"
       style="fill:#b6b6b6;fill-opacity:1;stroke:#a5a5a5;stroke-width:18.5844593;stroke-linecap:round;stroke-linejoin:round;stroke-miterlimit:4;stroke-opacity:1;stroke-dasharray:none"
       sodipodi:type="arc" />
    <path
       sodipodi:type="arc"
       style="fill:#b6b6b6;fill-opacity:1;stroke:#a5a5a5;stroke-width:18.5844593;stroke-linecap:round;stroke-linejoin:round;stroke-miterlimit:4;stroke-opacity:1;stroke-dasharray:none"
       id="path4506"
       sodipodi:cx="-13.830327"
       sodipodi:cy="421.82498"
       sodipodi:rx="2.514605"
       sodipodi:ry="1.8859538"
       d="m -11.315722,421.82498 a 2.514605,1.8859538 0 1 1 -5.02921,0 2.514605,1.8859538 0 1 1 5.02921,0 z"
       transform="matrix(0.43046721,0,0,0.43046721,39.66983,784.37927)" />
    <path
       transform="matrix(0.43046721,0,0,0.43046721,47.66983,712.48037)"
       d="m -11.315722,421.82498 a 2.514605,1.8859538 0 1 1 -5.02921,0 2.514605,1.8859538 0 1 1 5.02921,0 z"
       sodipodi:ry="1.8859538"
       sodipodi:rx="2.514605"
       sodipodi:cy="421.82498"
       sodipodi:cx="-13.830327"
       id="path4508"
       style="fill:#008cfe;fill-opacity:1;stroke:#008cfe;stroke-width:18.5844593;stroke-linecap:round;stroke-linejoin:round;stroke-miterlimit:4;stroke-opacity:1;stroke-dasharray:none"
       sodipodi:type="arc" />
    <path
       sodipodi:type="arc"
       style="fill:#b6b6b6;fill-opacity:1;stroke:#a5a5a5;stroke-width:18.5844593;stroke-linecap:round;stroke-linejoin:round;stroke-miterlimit:4;stroke-opacity:1;stroke-dasharray:none"
       id="path4510"
       sodipodi:cx="-13.830327"
       sodipodi:cy="421.82498"
       sodipodi:rx="2.514605"
       sodipodi:ry="1.8859538"
       d="m -11.315722,421.82498 a 2.514605,1.8859538 0 1 1 -5.02921,0 2.514605,1.8859538 0 1 1 5.02921,0 z"
       transform="matrix(0.43046721,0,0,0.43046721,77.66979,736.44667)" />
    <path
       transform="matrix(0.43046721,0,0,0.43046721,33.66983,808.34557)"
       d="m -11.315722,421.82498 a 2.514605,1.8859538 0 1 1 -5.02921,0 2.514605,1.8859538 0 1 1 5.02921,0 z"
       sodipodi:ry="1.8859538"
       sodipodi:rx="2.514605"
       sodipodi:cy="421.82498"
       sodipodi:cx="-13.830327"
       id="path4512"
       style="fill:#008cfe;fill-opacity:1;stroke:#008cfe;stroke-width:18.5844593;stroke-linecap:round;stroke-linejoin:round;stroke-miterlimit:4;stroke-opacity:1;stroke-dasharray:none"
       sodipodi:type="arc" />
    <path
       sodipodi:type="arc"
       style="fill:#008cfe;fill-opacity:1;stroke:#008cfe;stroke-width:18.5844593;stroke-linecap:round;stroke-linejoin:round;stroke-miterlimit:4;stroke-opacity:1;stroke-dasharray:none"
       id="path4514"
       sodipodi:cx="-13.830327"
       sodipodi:cy="421.82498"
       sodipodi:rx="2.514605"
       sodipodi:ry="1.8859538"
       d="m -11.315722,421.82498 a 2.514605,1.8859538 0 1 1 -5.02921,0 2.514605,1.8859538 0 1 1 5.02921,0 z"
       transform="matrix(0.43046721,0,0,0.43046721,37.66983,832.31187)" />
    <path
       transform="matrix(0.43046721,0,0,0.43046721,47.66983,856.27815)"
       d="m -11.315722,421.82498 a 2.514605,1.8859538 0 1 1 -5.02921,0 2.514605,1.8859538 0 1 1 5.02921,0 z"
       sodipodi:ry="1.8859538"
       sodipodi:rx="2.514605"
       sodipodi:cy="421.82498"
       sodipodi:cx="-13.830327"
       id="path4630"
       style="fill:#b6b6b6;fill-opacity:1;stroke:#a5a5a5;stroke-width:18.5844593;stroke-linecap:round;stroke-linejoin:round;stroke-miterlimit:4;stroke-opacity:1;stroke-dasharray:none"
       sodipodi:type="arc" />
    <path
       transform="matrix(0.43046721,0,0,0.43046721,37.66983,640.58147)"
       d="m -11.315722,421.82498 a 2.514605,1.8859538 0 1 1 -5.02921,0 2.514605,1.8859538 0 1 1 5.02921,0 z"
       sodipodi:ry="1.8859538"
       sodipodi:rx="2.514605"
       sodipodi:cy="421.82498"
       sodipodi:cx="-13.830327"
       id="path4652"
       style="fill:none;stroke:#a5a5a5;stroke-width:18.5844593;stroke-linecap:round;stroke-linejoin:round;stroke-miterlimit:4;stroke-opacity:1;stroke-dasharray:none"
       sodipodi:type="arc" />
    <path
       transform="matrix(0.43046721,0,0,0.43046721,145.63496,616.61507)"
       d="m -11.315722,421.82498 a 2.514605,1.8859538 0 1 1 -5.02921,0 2.514605,1.8859538 0 1 1 5.02921,0 z"
       sodipodi:ry="1.8859538"
       sodipodi:rx="2.514605"
       sodipodi:cy="421.82498"
       sodipodi:cx="-13.830327"
       id="path4534"
       style="fill:#b6b6b6;fill-opacity:1;stroke:#a5a5a5;stroke-width:18.5844593;stroke-linecap:round;stroke-linejoin:round;stroke-miterlimit:4;stroke-opacity:1;stroke-dasharray:none"
       sodipodi:type="arc" />
    <path
       sodipodi:type="arc"
       style="fill:#008cfe;fill-opacity:1;stroke:#008cfe;stroke-width:18.5844593;stroke-linecap:round;stroke-linejoin:round;stroke-miterlimit:4;stroke-opacity:1;stroke-dasharray:none"
       id="path4536"
       sodipodi:cx="-13.830327"
       sodipodi:cy="421.82498"
       sodipodi:rx="2.514605"
       sodipodi:ry="1.8859538"
       d="m -11.315722,421.82498 a 2.514605,1.8859538 0 1 1 -5.02921,0 2.514605,1.8859538 0 1 1 5.02921,0 z"
       transform="matrix(0.43046721,0,0,0.43046721,161.63496,664.54777)" />
    <path
       transform="matrix(0.43046721,0,0,0.43046721,155.63496,688.51407)"
       d="m -11.315722,421.82498 a 2.514605,1.8859538 0 1 1 -5.02921,0 2.514605,1.8859538 0 1 1 5.02921,0 z"
       sodipodi:ry="1.8859538"
       sodipodi:rx="2.514605"
       sodipodi:cy="421.82498"
       sodipodi:cx="-13.830327"
       id="path4538"
       style="fill:none;stroke:#a5a5a5;stroke-width:18.5844593;stroke-linecap:round;stroke-linejoin:round;stroke-miterlimit:4;stroke-opacity:1;stroke-dasharray:none"
       sodipodi:type="arc" />
    <path
       sodipodi:type="arc"
       style="fill:#008cfe;fill-opacity:1;stroke:#008cfe;stroke-width:18.5844593;stroke-linecap:round;stroke-linejoin:round;stroke-miterlimit:4;stroke-opacity:1;stroke-dasharray:none"
       id="path4540"
       sodipodi:cx="-13.830327"
       sodipodi:cy="421.82498"
       sodipodi:rx="2.514605"
       sodipodi:ry="1.8859538"
       d="m -11.315722,421.82498 a 2.514605,1.8859538 0 1 1 -5.02921,0 2.514605,1.8859538 0 1 1 5.02921,0 z"
       transform="matrix(0.43046721,0,0,0.43046721,145.63496,760.41297)" />
    <path
       transform="matrix(0.43046721,0,0,0.43046721,155.63496,784.37927)"
       d="m -11.315722,421.82498 a 2.514605,1.8859538 0 1 1 -5.02921,0 2.514605,1.8859538 0 1 1 5.02921,0 z"
       sodipodi:ry="1.8859538"
       sodipodi:rx="2.514605"
       sodipodi:cy="421.82498"
       sodipodi:cx="-13.830327"
       id="path4542"
       style="fill:#008cfe;fill-opacity:1;stroke:#008cfe;stroke-width:18.5844593;stroke-linecap:round;stroke-linejoin:round;stroke-miterlimit:4;stroke-opacity:1;stroke-dasharray:none"
       sodipodi:type="arc" />
    <path
       sodipodi:type="arc"
       style="fill:none;stroke:#a5a5a5;stroke-width:18.5844593;stroke-linecap:round;stroke-linejoin:round;stroke-miterlimit:4;stroke-opacity:1;stroke-dasharray:none"
       id="path4544"
       sodipodi:cx="-13.830327"
       sodipodi:cy="421.82498"
       sodipodi:rx="2.514605"
       sodipodi:ry="1.8859538"
       d="m -11.315722,421.82498 a 2.514605,1.8859538 0 1 1 -5.02921,0 2.514605,1.8859538 0 1 1 5.02921,0 z"
       transform="matrix(0.43046721,0,0,0.43046721,145.63496,712.48037)" />
    <path
       transform="matrix(0.43046721,0,0,0.43046721,117.63496,736.44667)"
       d="m -11.315722,421.82498 a 2.514605,1.8859538 0 1 1 -5.02921,0 2.514605,1.8859538 0 1 1 5.02921,0 z"
       sodipodi:ry="1.8859538"
       sodipodi:rx="2.514605"
       sodipodi:cy="421.82498"
       sodipodi:cx="-13.830327"
       id="path4546"
       style="fill:#b6b6b6;fill-opacity:1;stroke:#a5a5a5;stroke-width:18.5844593;stroke-linecap:round;stroke-linejoin:round;stroke-miterlimit:4;stroke-opacity:1;stroke-dasharray:none"
       sodipodi:type="arc" />
    <path
       sodipodi:type="arc"
       style="fill:#b6b6b6;fill-opacity:1;stroke:#a5a5a5;stroke-width:18.5844593;stroke-linecap:round;stroke-linejoin:round;stroke-miterlimit:4;stroke-opacity:1;stroke-dasharray:none"
       id="path4548"
       sodipodi:cx="-13.830327"
       sodipodi:cy="421.82498"
       sodipodi:rx="2.514605"
       sodipodi:ry="1.8859538"
       d="m -11.315722,421.82498 a 2.514605,1.8859538 0 1 1 -5.02921,0 2.514605,1.8859538 0 1 1 5.02921,0 z"
       transform="matrix(0.43046721,0,0,0.43046721,161.63496,808.34557)" />
    <path
       transform="matrix(0.43046721,0,0,0.43046721,155.63496,832.31187)"
       d="m -11.315722,421.82498 a 2.514605,1.8859538 0 1 1 -5.02921,0 2.514605,1.8859538 0 1 1 5.02921,0 z"
       sodipodi:ry="1.8859538"
       sodipodi:rx="2.514605"
       sodipodi:cy="421.82498"
       sodipodi:cx="-13.830327"
       id="path4550"
       style="fill:#b6b6b6;fill-opacity:1;stroke:#a5a5a5;stroke-width:18.5844593;stroke-linecap:round;stroke-linejoin:round;stroke-miterlimit:4;stroke-opacity:1;stroke-dasharray:none"
       sodipodi:type="arc" />
    <path
       sodipodi:type="arc"
       style="fill:#b6b6b6;fill-opacity:1;stroke:#a5a5a5;stroke-width:18.5844593;stroke-linecap:round;stroke-linejoin:round;stroke-miterlimit:4;stroke-opacity:1;stroke-dasharray:none"
       id="path4628"
       sodipodi:cx="-13.830327"
       sodipodi:cy="421.82498"
       sodipodi:rx="2.514605"
       sodipodi:ry="1.8859538"
       d="m -11.315722,421.82498 a 2.514605,1.8859538 0 1 1 -5.02921,0 2.514605,1.8859538 0 1 1 5.02921,0 z"
       transform="matrix(0.43046721,0,0,0.43046721,145.63496,856.27815)" />
    <path
       sodipodi:type="arc"
       style="fill:#008cfe;fill-opacity:1;stroke:#008cfe;stroke-width:18.5844593;stroke-linecap:round;stroke-linejoin:round;stroke-miterlimit:4;stroke-opacity:1;stroke-dasharray:none"
       id="path4654"
       sodipodi:cx="-13.830327"
       sodipodi:cy="421.82498"
       sodipodi:rx="2.514605"
       sodipodi:ry="1.8859538"
       d="m -11.315722,421.82498 a 2.514605,1.8859538 0 1 1 -5.02921,0 2.514605,1.8859538 0 1 1 5.02921,0 z"
       transform="matrix(0.43046721,0,0,0.43046721,155.63496,640.58147)" />
    <path
       sodipodi:type="arc"
       style="fill:none;stroke:#ee0053;stroke-width:46.2003746;stroke-linecap:round;stroke-linejoin:round;stroke-miterlimit:4;stroke-opacity:1;stroke-dasharray:none"
       id="path4476"
       sodipodi:cx="361.63461"
       sodipodi:cy="205.85435"
       sodipodi:rx="375.77673"
       sodipodi:ry="204.05081"
       d="m 737.41135,205.85435 a 375.77673,204.05081 0 1 1 -751.55347,0 375.77673,204.05081 0 1 1 751.55347,0 z"
       clip-path="url(#clipPath4488)"
       transform="matrix(0.10800465,0.10800462,-0.10800462,0.10800465,198.69601,807.70687)" />
    <path
       d="m 737.41135,205.85435 a 375.77673,204.05081 0 1 1 -751.55347,0 375.77673,204.05081 0 1 1 751.55347,0 z"
       sodipodi:ry="204.05081"
       sodipodi:rx="375.77673"
       sodipodi:cy="205.85435"
       sodipodi:cx="361.63461"
       id="path4478"
       style="fill:none;stroke:#e2abbd;stroke-width:46.2003746;stroke-linecap:round;stroke-linejoin:round;stroke-miterlimit:4;stroke-opacity:1;stroke-dasharray:none"
       sodipodi:type="arc"
       transform="matrix(0.10800465,0.10800462,-0.10800462,0.10800465,198.69601,807.70687)"
       clip-path="url(#clipPath4482)" />
  </g>
</svg>
